<svg viewBox="0 0 865 1992" fill="none" xmlns="http://www.w3.org/2000/svg">
<g opacity="0.15" filter="url(#filter0_d)">
<g clip-path="url(#clip0)">
<path d="M864.966 130.5C436.458 266.355 125.999 666.507 125.999 1139C125.999 1489.06 296.417 1799.42 559 1992" stroke="#B105F9" stroke-width="14"/>
<path d="M898.514 548.465C911.234 548.465 924.187 555.308 936.801 569.524C949.407 583.732 961.079 604.69 971.024 631.188C990.894 684.134 1003.33 757.747 1003.33 839.404C1003.33 921.059 990.894 994.673 971.024 1047.62C961.079 1074.12 949.407 1095.08 936.801 1109.28C924.187 1123.5 911.234 1130.34 898.514 1130.34C885.795 1130.34 872.842 1123.5 860.228 1109.28C847.622 1095.08 835.95 1074.12 826.005 1047.62C806.136 994.673 793.703 921.059 793.703 839.404C793.703 757.747 806.136 684.134 826.005 631.188C835.95 604.69 847.622 583.732 860.228 569.524C872.842 555.308 885.795 548.465 898.514 548.465Z" fill="black" fill-opacity="0.01" stroke="#B105F9" stroke-width="14"/>
<path d="M495.17 1309.05C495.242 1308.93 495.324 1308.8 495.417 1308.65C495.922 1307.84 496.74 1306.63 497.913 1305.2C500.261 1302.34 503.998 1298.62 509.45 1295.39C520.122 1289.07 538.387 1284.05 567.82 1292.97C630.524 1311.98 1207.17 1458.69 1808.11 1293.1C1808.22 1293.08 1808.37 1293.05 1808.57 1293.02C1809.07 1292.94 1809.84 1292.83 1810.84 1292.72C1812.84 1292.5 1815.71 1292.29 1819.11 1292.34C1825.99 1292.45 1834.64 1293.64 1842.58 1297.66C1850.34 1301.59 1857.7 1308.35 1862.2 1320.24C1866.77 1332.33 1868.56 1350.2 1864.01 1376.49C1854.86 1429.42 1807.45 1570.49 1700.28 1698.19C1593.31 1825.63 1427.04 1939.53 1179.72 1939.46C932.48 1939.4 753.488 1818.34 640.139 1678.45C583.442 1608.48 543.256 1533.89 519.262 1467.6C495.392 1401.64 487.867 1344.8 495.17 1309.05Z" stroke="#B105F9" stroke-width="14"/>
</g>
</g>
<defs>
<filter id="filter0_d" x="0.800003" y="-44.2" width="987.4" height="2365.4" filterUnits="userSpaceOnUse" color-interpolation-filters="sRGB">
<feFlood flood-opacity="0" result="BackgroundImageFix"/>
<feColorMatrix in="SourceAlpha" type="matrix" values="0 0 0 0 0 0 0 0 0 0 0 0 0 0 0 0 0 0 127 0"/>
<feOffset/>
<feGaussianBlur stdDeviation="61.6"/>
<feColorMatrix type="matrix" values="0 0 0 0 0.917647 0 0 0 0 0 0 0 0 0 1 0 0 0 0.08 0"/>
<feBlend mode="normal" in2="BackgroundImageFix" result="effect1_dropShadow"/>
<feBlend mode="normal" in="SourceGraphic" in2="effect1_dropShadow" result="shape"/>
</filter>
<clipPath id="clip0">
<rect x="124" y="79" width="741" height="2119" fill="white"/>
</clipPath>
</defs>
</svg>
